<?xml version="1.0" encoding="UTF-8" standalone="no"?>
<!DOCTYPE svg PUBLIC "-//W3C//DTD SVG 1.1//EN" "http://www.w3.org/Graphics/SVG/1.1/DTD/svg11.dtd">
<svg width="100%" height="100%" viewBox="0 0 1081 1080" version="1.1" xmlns="http://www.w3.org/2000/svg" xmlns:xlink="http://www.w3.org/1999/xlink" xml:space="preserve" xmlns:serif="http://www.serif.com/" style="fill-rule:evenodd;clip-rule:evenodd;stroke-linejoin:round;stroke-miterlimit:2;">
    <g transform="matrix(1,0,0,1,-1489,0)">
        <g id="Simple-Logo" serif:id="Simple Logo" transform="matrix(1,0,0,1,1255.8,0)">
            <rect x="233.427" y="0" width="1080" height="1080" style="fill:none;"/>
            <g transform="matrix(2.11794,0,0,2.11794,-838.273,-570.425)">
                <path d="M748.046,745.528C748.046,749.804 746.212,753.874 743.01,756.708C739.807,759.541 735.543,760.865 731.299,760.344C613.941,745.715 523.117,645.612 523.117,524.295C523.117,402.978 613.941,302.875 731.302,288.27C735.539,287.749 739.797,289.071 742.994,291.9C746.192,294.729 748.023,298.793 748.023,303.062C748.046,376.029 748.046,672.561 748.046,745.528Z"/>
            </g>
            <g transform="matrix(1.29686e-16,2.11794,-2.11794,1.29686e-16,1883.85,-1071.7)">
                <path d="M539.743,511.365C535.467,511.365 531.396,509.532 528.563,506.329C525.73,503.126 524.406,498.863 524.927,494.618C538.913,382.421 631.02,294.476 745.098,286.958C749.208,286.696 753.243,288.145 756.246,290.963C759.249,293.78 760.953,297.715 760.953,301.833C760.976,335.547 760.976,416.945 760.976,467.789C760.976,479.346 756.385,490.43 748.212,498.602C740.04,506.774 728.956,511.365 717.399,511.365L539.743,511.365Z"/>
            </g>
        </g>
    </g>
</svg>
